<?xml version="1.0" standalone="no"?>
<!DOCTYPE svg PUBLIC "-//W3C//DTD SVG 20010904//EN"
 "http://www.w3.org/TR/2001/REC-SVG-20010904/DTD/svg10.dtd">
<svg version="1.0" xmlns="http://www.w3.org/2000/svg"
 width="243.000000pt" height="243.000000pt" viewBox="0 0 243.000000 243.000000"
 preserveAspectRatio="xMidYMid meet">
<g transform="translate(0.000000,243.000000) scale(0.100000,-0.100000)"
fill="#9d7cae" stroke="none">
<path d="M1006 2414 c-162 -29 -330 -99 -476 -197 -94 -64 -251 -220 -312
-312 -146 -221 -208 -427 -208 -692 0 -231 58 -438 178 -634 79 -130 261 -312
391 -391 357 -219 811 -240 1176 -56 128 64 213 126 316 228 283 282 408 665
344 1060 -71 436 -389 808 -813 950 -173 58 -418 76 -596 44z m480 -917 c1 -1
-1 -20 -5 -42 -5 -33 -11 -41 -31 -43 -30 -5 -50 -20 -50 -38 0 -10 13 -14 45
-14 39 0 45 3 45 20 0 39 29 90 62 110 23 14 50 20 91 20 62 0 64 -2 51 -69
-5 -26 -10 -30 -29 -25 -16 4 -27 -1 -39 -17 -23 -34 -20 -39 20 -39 33 0 36
-2 30 -22 -3 -13 -6 -33 -6 -45 0 -20 -5 -23 -35 -23 -19 0 -35 -1 -36 -2 0
-2 -10 -59 -22 -128 l-22 -125 -49 -3 c-77 -5 -75 -8 -55 120 10 62 19 119 19
126 0 8 -15 12 -43 12 l-43 0 -20 -127 -19 -128 -54 -3 c-30 -2 -57 0 -61 5
-4 4 0 58 11 118 23 139 23 135 -2 135 -19 0 -21 4 -15 31 3 17 6 38 6 45 0 8
10 14 25 14 19 0 25 5 25 21 0 77 81 136 170 122 19 -2 36 -6 36 -6z m-566
-163 l0 -26 31 26 c18 15 43 26 60 26 l30 0 -7 -47 c-3 -27 -8 -50 -10 -52 -2
-3 -25 -12 -51 -20 -54 -18 -64 -37 -83 -158 l-12 -73 -59 0 c-70 0 -68 -10
-39 165 11 66 20 135 20 153 l0 32 60 0 c58 0 60 -1 60 -26z m274 -1 c-3 -16
-15 -93 -27 -173 l-23 -145 -53 -3 c-30 -2 -57 0 -62 5 -4 4 4 83 19 176 l26
167 63 0 63 0 -6 -27z"/>
</g>
</svg>
